# xmcd
#
# Track frame offsets:
#       182
#       23435
#       39717
#       47905
#       61875
#       82842
#       101570
#       119835
#       141297
#       162315
#       173765
#
# Disc length: 2645 seconds
#
# Revision: 1
# Processed by: cddbd v1.5.2PL0 Copyright (c) Steve Scherf et al.
# Submitted via: WaveLab 4.01
#
DISCID=8e0a530b
DTITLE=Michael Bloomfield - Blues, Gospel and Ragtime Guitar Instruments
DYEAR=1993
DGENRE=
TTITLE0=When I Need You
TTITLE1=Memphis Radio Blues
TTITLE2=Blake's Rag
TTITLE3=Just A Closer Walk With Thee
TTITLE4=At the Cross
TTITLE5=Hawaiian Guitar Waltz
TTITLE6=Gonna Need Somebody On My Bond
TTITLE7=Blues For Norman
TTITLE8=Wheelchair Rag
TTITLE9=Farther Along
TTITLE10=Mood Indigo
EXTD=
EXTT0=
EXTT1=
EXTT2=
EXTT3=
EXTT4=
EXTT5=
EXTT6=
EXTT7=
EXTT8=
EXTT9=
EXTT10=
PLAYORDER=
